<?xml version="1.0" standalone="no"?><!DOCTYPE svg PUBLIC "-//W3C//DTD SVG 1.1//EN" "http://www.w3.org/Graphics/SVG/1.1/DTD/svg11.dtd"><svg t="1782669975227" class="icon" viewBox="0 0 1024 1024" version="1.1" xmlns="http://www.w3.org/2000/svg" p-id="12893" xmlns:xlink="http://www.w3.org/1999/xlink" width="200" height="200"><path d="M887.5 0h-751C61.1 0 0 61.1 0 136.5v750.9c0 75.4 61.1 136.5 136.5 136.5h750.9c75.4 0 136.5-61.1 136.5-136.5V136.5C1024 61.1 962.9 0 887.5 0zM512 853.3c-188.2 0-341.3-153.1-341.3-341.3S323.8 170.7 512 170.7 853.3 323.8 853.3 512 700.2 853.3 512 853.3z" fill="#3D8BFA" p-id="12894"></path><path d="M512 195c-174.8 0-317 142.2-317 317s142.2 316.9 317 316.9S828.9 686.7 828.9 512 686.7 195 512 195z m49.3 337.5l118.6 152h-108l-90.4-129.7c-15.1-22.9-19.1-40.5-18.5-53.3l-17 183h-81l31.8-341.6h81l-14.4 154.3c2.2-16.1 11.7-23.5 11.7-23.5L606 342.8h99.8s-113.9 115-139.1 140.3c-25.2 25.2-5.3 49.3-5.3 49.3z" fill="#3D8BFA" p-id="12895"></path></svg>