<?xml version="1.0" standalone="no"?><!DOCTYPE svg PUBLIC "-//W3C//DTD SVG 1.1//EN" "http://www.w3.org/Graphics/SVG/1.1/DTD/svg11.dtd"><svg t="1782669939752" class="icon" viewBox="0 0 1024 1024" version="1.1" xmlns="http://www.w3.org/2000/svg" p-id="12395" xmlns:xlink="http://www.w3.org/1999/xlink" width="200" height="200"><path d="M853.343368 0H170.656632A170.656632 170.656632 0 0 0 0 170.656632v682.656632a170.656632 170.656632 0 0 0 170.656632 170.656633h682.686736a170.656632 170.656632 0 0 0 170.656632-170.656633V170.656632A170.656632 170.656632 0 0 0 853.343368 0z m-259.883349 919.962371c-37.900282 18.182502-40.459078 18.724365-97.053622 18.724365-52.048918 0-61.170273-1.565381-86.427093-13.185325-63.187206-29.802446-97.535278-80.34619-97.535278-143.533396 0-28.809031 2.528692-41.422389 13.636877-64.180621 37.900282-77.335842 124.839135-124.839135 217.347131-118.788335 28.809031 2.047037 37.900282 1.023518 35.37159-3.010348-2.016933-3.552211-53.554092-75.349012-114.724365-160.240828-60.658514-84.921919-111.714017-159.21731-113.219191-165.268109-5.569144-28.809031 18.182502-62.163688 61.140169-86.938852 32.361242-17.670743 65.204139-28.809031 125.862653-40.940734 49.550329-10.626529 106.626529-35.37159 116.741298-51.055503 9.60301-15.142051 14.660395-3.522107 17.189088 42.476011 3.522107 52.560677-5.599247 83.898401-33.354657 115.71778-32.361242 36.395108-79.834431 56.112888-147.567262 61.140169l-17.700847 1.023519 103.104421 171.830668c56.594544 94.524929 110.178739 186.491063 118.788335 204.673565 42.415804 87.029163 0.963311 183.029163-101.599247 231.555974z" fill="#55d696" p-id="12396"></path></svg>